# xmcd
#
# Track frame offsets:
#	150
#	18414
#	34086
#	51470
#	67103
#	84446
#	98343
#	115598
#	134029
#	149889
#	167432
#	184005
#
# Disc length: 2638 seconds
#
# Revision: 1
# Processed by: cddbd v1.5.2PL0 Copyright (c) Steve Scherf et al.
# Submitted via: audiograbber 1.83.01
#
DISCID=a60a4c0c
DTITLE=Darius Rucker - Learn To Live
DYEAR=2008
DGENRE=Country
TTITLE0=Darius Rucker - Forever Road
TTITLE1=Darius Rucker - I Hope They Get to Me in Time
TTITLE2=Darius Rucker - While I Still Got the Time
TTITLE3=Darius Rucker - Be Wary of a Woman
TTITLE4=Darius Rucker - All I Want
TTITLE5=Darius Rucker - Don't Think I Don't Think About This For Long
TTITLE6=Darius Rucker - Learn to Live
TTITLE7=Darius Rucker - If I Had Wings
TTITLE8=Darius Rucker - History in the Making
TTITLE9=Darius Rucker - Alright
TTITLE10=Darius Rucker - It Won't Be Like This for Long
TTITLE11=Darius Rucker - Drinkin' and Dailin'
EXTD=
EXTT0=
EXTT1=
EXTT2=
EXTT3=
EXTT4=
EXTT5=
EXTT6=
EXTT7=
EXTT8=
EXTT9=
EXTT10=
EXTT11=
PLAYORDER=
